# Made in Blockbench 3.9.2
mtllib belt.mtl
o cube
v 2.6875 0.75 -2.6874375
v 2.6875 0.75 -2.6875
v 2.6875 0.0625 -2.6874375
v 2.6875 0.0625 -2.6875
v -2.6875 0.75 -2.6875
v -2.6875 0.75 -2.6874375
v -2.6875 0.0625 -2.6875
v -2.6875 0.0625 -2.6874375
vt 0 1
vt 0 0.95703125
vt 0 1
vt 0 0.95703125
vt 0 0.95703125
vt 0 1
vt 0 1
vt 0 0.95703125
vt 0 1
vt 0 0.95703125
vt 0 0.95703125
vt 0 1
vt 0.3359375 1
vt 0.3359375 1
vt 0 1
vt 0.3359375 1
vt 0 1
vt 0 1
vt 0.3359375 1
vt 0.3359375 1
vt 0 1
vt 0.3359375 1
vt 0 1
vt 0 1
vt 0.375 0.76953125
vt 0.375 0.7265625
vt 0.703125 0.76953125
vt 0.375 0.7265625
vt 0.703125 0.7265625
vt 0.703125 0.76953125
vn 1 0 0
vn 1 0 0
vn 1 0 0
vn 1 0 0
vn 1 0 0
vn 1 0 0
vn -1 0 0
vn -1 0 0
vn -1 0 0
vn -1 0 0
vn -1 0 0
vn -1 0 0
vn 0 1 0
vn 0 1 0
vn 0 1 0
vn 0 1 0
vn 0 1 0
vn 0 1 0
vn 0 -1 0
vn 0 -1 0
vn 0 -1 0
vn 0 -1 0
vn 0 -1 0
vn 0 -1 0
vn 0 0 -1
vn 0 0 -1
vn 0 0 -1
vn 0 0 -1
vn 0 0 -1
vn 0 0 -1
usemtl m_0
f 1/1/1 3/2/2 2/3/3
f 3/4/4 4/5/5 2/6/6
usemtl m_0
f 5/7/7 7/8/8 6/9/9
f 7/10/10 8/11/11 6/12/12
usemtl m_0
f 5/13/13 6/14/14 2/15/15
f 6/16/16 1/17/17 2/18/18
usemtl m_0
f 8/19/19 7/20/20 3/21/21
f 7/22/22 4/23/23 3/24/24
usemtl m_0
f 2/25/25 4/26/26 5/27/27
f 4/28/28 7/29/29 5/30/30
o cube
v 2.6875 0.75 2.6875625
v 2.6875 0.75 2.6875
v 2.6875 0.0625 2.6875625
v 2.6875 0.0625 2.6875
v -2.6875 0.75 2.6875
v -2.6875 0.75 2.6875625
v -2.6875 0.0625 2.6875
v -2.6875 0.0625 2.6875625
vt 0 1
vt 0 0.95703125
vt 0 1
vt 0 0.95703125
vt 0 0.95703125
vt 0 1
vt 0 1
vt 0 0.95703125
vt 0 1
vt 0 0.95703125
vt 0 0.95703125
vt 0 1
vt 0.3359375 1
vt 0.3359375 1
vt 0 1
vt 0.3359375 1
vt 0 1
vt 0 1
vt 0.3359375 1
vt 0.3359375 1
vt 0 1
vt 0.3359375 1
vt 0 1
vt 0 1
vt 0.375 0.76953125
vt 0.375 0.7265625
vt 0.703125 0.76953125
vt 0.375 0.7265625
vt 0.703125 0.7265625
vt 0.703125 0.76953125
vn 1 0 0
vn 1 0 0
vn 1 0 0
vn 1 0 0
vn 1 0 0
vn 1 0 0
vn -1 0 0
vn -1 0 0
vn -1 0 0
vn -1 0 0
vn -1 0 0
vn -1 0 0
vn 0 1 0
vn 0 1 0
vn 0 1 0
vn 0 1 0
vn 0 1 0
vn 0 1 0
vn 0 -1 0
vn 0 -1 0
vn 0 -1 0
vn 0 -1 0
vn 0 -1 0
vn 0 -1 0
vn 0 0 1
vn 0 0 1
vn 0 0 1
vn 0 0 1
vn 0 0 1
vn 0 0 1
usemtl m_0
f 9/31/31 11/32/32 10/33/33
f 11/34/34 12/35/35 10/36/36
usemtl m_0
f 13/37/37 15/38/38 14/39/39
f 15/40/40 16/41/41 14/42/42
usemtl m_0
f 13/43/43 14/44/44 10/45/45
f 14/46/46 9/47/47 10/48/48
usemtl m_0
f 16/49/49 15/50/50 11/51/51
f 15/52/52 12/53/53 11/54/54
usemtl m_0
f 14/55/55 16/56/56 9/57/57
f 16/58/58 11/59/59 9/60/60
o cube
v -2.6874375 0.75 2.6875
v -2.6874375 0.75 -2.6875
v -2.6874375 0.0625 2.6875
v -2.6874375 0.0625 -2.6875
v -2.6875 0.75 -2.6875
v -2.6875 0.75 2.6875
v -2.6875 0.0625 -2.6875
v -2.6875 0.0625 2.6875
vt 0.375 0.76953125
vt 0.375 0.7265625
vt 0.703125 0.76953125
vt 0.375 0.7265625
vt 0.703125 0.7265625
vt 0.703125 0.76953125
vt 0 0.6640625
vt 0 1
vt 0 0.6640625
vt 0 1
vt 0 1
vt 0 0.6640625
vt 0 1
vt 0 0.6640625
vt 0 1
vt 0 0.6640625
vt 0 0.6640625
vt 0 1
vt 0 1
vt 0 0.95703125
vt 0 1
vt 0 0.95703125
vt 0 0.95703125
vt 0 1
vt 0 1
vt 0 0.95703125
vt 0 1
vt 0 0.95703125
vt 0 0.95703125
vt 0 1
vn -1 0 0
vn -1 0 0
vn -1 0 0
vn -1 0 0
vn -1 0 0
vn -1 0 0
vn 0 1 0
vn 0 1 0
vn 0 1 0
vn 0 1 0
vn 0 1 0
vn 0 1 0
vn 0 -1 0
vn 0 -1 0
vn 0 -1 0
vn 0 -1 0
vn 0 -1 0
vn 0 -1 0
vn 0 0 1
vn 0 0 1
vn 0 0 1
vn 0 0 1
vn 0 0 1
vn 0 0 1
vn 0 0 -1
vn 0 0 -1
vn 0 0 -1
vn 0 0 -1
vn 0 0 -1
vn 0 0 -1
usemtl m_0
f 21/61/61 23/62/62 22/63/63
f 23/64/64 24/65/65 22/66/66
usemtl m_0
f 21/67/67 22/68/68 18/69/69
f 22/70/70 17/71/71 18/72/72
usemtl m_0
f 24/73/73 23/74/74 19/75/75
f 23/76/76 20/77/77 19/78/78
usemtl m_0
f 22/79/79 24/80/80 17/81/81
f 24/82/82 19/83/83 17/84/84
usemtl m_0
f 18/85/85 20/86/86 21/87/87
f 20/88/88 23/89/89 21/90/90
o cube
v 2.6875625 0.75 2.6875
v 2.6875625 0.75 -2.6875
v 2.6875625 0.0625 2.6875
v 2.6875625 0.0625 -2.6875
v 2.6875 0.75 -2.6875
v 2.6875 0.75 2.6875
v 2.6875 0.0625 -2.6875
v 2.6875 0.0625 2.6875
vt 0.375 0.76953125
vt 0.375 0.7265625
vt 0.703125 0.76953125
vt 0.375 0.7265625
vt 0.703125 0.7265625
vt 0.703125 0.76953125
vt 0 0.6640625
vt 0 1
vt 0 0.6640625
vt 0 1
vt 0 1
vt 0 0.6640625
vt 0 1
vt 0 0.6640625
vt 0 1
vt 0 0.6640625
vt 0 0.6640625
vt 0 1
vt 0 1
vt 0 0.95703125
vt 0 1
vt 0 0.95703125
vt 0 0.95703125
vt 0 1
vt 0 1
vt 0 0.95703125
vt 0 1
vt 0 0.95703125
vt 0 0.95703125
vt 0 1
vn 1 0 0
vn 1 0 0
vn 1 0 0
vn 1 0 0
vn 1 0 0
vn 1 0 0
vn 0 1 0
vn 0 1 0
vn 0 1 0
vn 0 1 0
vn 0 1 0
vn 0 1 0
vn 0 -1 0
vn 0 -1 0
vn 0 -1 0
vn 0 -1 0
vn 0 -1 0
vn 0 -1 0
vn 0 0 1
vn 0 0 1
vn 0 0 1
vn 0 0 1
vn 0 0 1
vn 0 0 1
vn 0 0 -1
vn 0 0 -1
vn 0 0 -1
vn 0 0 -1
vn 0 0 -1
vn 0 0 -1
usemtl m_0
f 25/91/91 27/92/92 26/93/93
f 27/94/94 28/95/95 26/96/96
usemtl m_0
f 29/97/97 30/98/98 26/99/99
f 30/100/100 25/101/101 26/102/102
usemtl m_0
f 32/103/103 31/104/104 27/105/105
f 31/106/106 28/107/107 27/108/108
usemtl m_0
f 30/109/109 32/110/110 25/111/111
f 32/112/112 27/113/113 25/114/114
usemtl m_0
f 26/115/115 28/116/116 29/117/117
f 28/118/118 31/119/119 29/120/120
